<?xml version="1.0" encoding="UTF-8" standalone="no"?>
<!DOCTYPE svg PUBLIC "-//W3C//DTD SVG 1.1//EN" "http://www.w3.org/Graphics/SVG/1.1/DTD/svg11.dtd">
<svg width="100%" height="100%" viewBox="0 0 512 512" version="1.1" xmlns="http://www.w3.org/2000/svg" xmlns:xlink="http://www.w3.org/1999/xlink" xml:space="preserve" xmlns:serif="http://www.serif.com/" style="fill-rule:evenodd;clip-rule:evenodd;stroke-linejoin:round;stroke-miterlimit:1.41421;">
    <g transform="matrix(0.985139,0,0,0.985139,-5.33374,3.80969)">
        <path d="M381.81,69.538C376.663,67.796 371.074,70.552 369.322,75.699C367.58,80.836 370.335,86.436 375.482,88.187C445.365,111.915 492.318,177.378 492.318,251.089C492.318,324.731 445.454,390.205 375.709,414.001C370.572,415.753 367.816,421.343 369.578,426.499C370.975,430.583 374.794,433.162 378.887,433.162C379.94,433.162 381.013,432.995 382.066,432.63C459.773,406.128 511.99,333.175 511.99,251.099C512,168.935 459.684,95.982 381.81,69.538Z" style="fill:white;fill-rule:nonzero;"/>
        <path d="M423.429,251.079C423.429,192.308 383.975,139.854 327.487,123.517C322.241,122.031 316.819,125.013 315.303,130.249C313.798,135.465 316.799,140.926 322.035,142.432C370.148,156.338 403.756,201.017 403.756,251.079C403.756,301.142 370.148,345.821 322.035,359.727C316.809,361.232 313.798,366.694 315.303,371.91C316.553,376.221 320.48,379.025 324.761,379.025C325.666,379.025 326.581,378.897 327.487,378.641C383.985,362.305 423.429,309.851 423.429,251.079Z" style="fill:white;fill-rule:nonzero;"/>
        <g transform="matrix(1.01509,0,0,1.01509,5.4142,-3.86716)">
            <path d="M269.312,41.719C260.068,36.485 249.107,36.655 240.014,42.136C239.578,42.392 239.161,42.695 238.782,43.017L110.308,151.704L9.481,151.704C4.238,151.704 0,155.942 0,161.185L0,341.333C0,343.855 0.996,346.264 2.778,348.037C4.561,349.81 6.959,350.815 9.481,350.815L110.08,350.767L238.488,468.717C238.962,469.153 239.474,469.532 240.014,469.855C244.679,472.671 249.847,474.084 255.014,474.084C259.916,474.074 264.808,472.813 269.312,470.272C278.784,464.924 284.444,455.159 284.444,444.151L284.444,67.849C284.444,56.841 278.784,47.076 269.312,41.719ZM265.481,444.151C265.481,448.237 263.424,451.831 259.992,453.774C258.522,454.599 254.796,456.192 250.51,454.021L123.259,337.124L123.259,293.926C123.259,288.683 119.021,284.444 113.778,284.444C108.535,284.444 104.296,288.683 104.296,293.926L104.296,331.814L18.963,331.852L18.963,170.667L104.296,170.667L104.296,208.593C104.296,213.836 108.535,218.074 113.778,218.074C119.021,218.074 123.259,213.836 123.259,208.593L123.259,165.585L250.359,58.065C254.72,55.77 258.513,57.401 259.992,58.235C263.424,60.179 265.481,63.763 265.481,67.849L265.481,444.151Z" style="fill:white;fill-rule:nonzero;"/>
        </g>
    </g>
</svg>
