<svg version="1" xmlns="http://www.w3.org/2000/svg" width="346.667" height="346.667" viewBox="0 0 260.000000 260.000000"><path d="M122 3.9v3.9l7 .4c3.9.2 7.5.1 8 0 .6-.2 1-2.1 1-4.3V0h-16v3.9zM122 32.4v8.2l7.5.1c5.3.1 7.7-.3 8.3-1.2.4-.8.5-4.4.2-8.2l-.5-6.8-7.7-.2-7.8-.1v8.2zM243.9 34c-.4 7.6-.1 111.2.4 111.6.6.6 8.8.9 14 .5 1.6-.1 1.7-3.3 1.5-56.8l-.3-56.8h-7.7c-6.3-.1-7.8.2-7.9 1.5zM122 65v8h16V57h-16v8zM195 73v8l5.8.1c3.1 0 6.7.2 8 .3 2.4.3 2.4.2 2.4-9.9 0-2.5-.1-5-.1-5.5-.1-.6-3.5-1-8.1-1h-8v8zM122.2 97.4l.3 8.1h15l.3-8.1.3-8h-16.2l.3 8zM0 154.2V211l2.5.1c3.2.2 5.5.2 10.3 0l3.7-.1-.2-55.2c-.1-30.4-.2-56-.2-56.8-.1-1.2-1.6-1.5-8.1-1.5H0v56.7zM122 129.9v7.9l5.8.4c10.5.6 10.2.8 10.2-8.3V122h-16v7.9zM122.5 154.8c-.3.3-.5 3.9-.5 8.1v7.6l7.9.2c7.9.1 8 .1 8.3-2.5.2-1.5.2-5.2 0-8.2l-.4-5.6-7.3-.1c-4.1 0-7.7.2-8 .5zM122 195v8h16v-16h-16v8zM122.2 220.6c-.4.7-.5 4.3-.2 8.1l.5 6.8 7.8.2 7.8.1-.3-8.1-.3-8.2-7.3-.1c-4.9-.1-7.5.3-8 1.2zM128.2 252c-3.4.3-6.2.8-6.2 1.2v6.8h16v-3.9c0-4.6-.7-4.8-9.8-4.1z"/></svg>